<svg width="256" height="256" viewBox="0 0 256 256" fill="none" xmlns="http://www.w3.org/2000/svg">
<rect width="256" height="256" fill="white"/>
<path d="M52.6008 133.268C51.2688 134.348 49.3608 135.356 46.9848 135.356C44.7888 135.356 42.9888 134.564 41.9088 133.484C40.8288 132.404 40.0368 130.568 40.0368 128.552C40.0368 126.644 40.7207 124.484 42.1968 122.9C43.7088 121.244 45.5808 120.632 47.8848 120.632C51.0888 120.632 52.9248 122.072 53.8968 123.044L54.5808 117.176C53.7168 116.672 51.4848 115.448 47.7768 115.448C43.3848 115.448 40.1808 117.176 38.1648 119.192C35.9328 121.424 34.3488 124.844 34.3488 129.02C34.3488 133.196 36.0408 135.788 37.5888 137.336C38.8848 138.596 41.5128 140.54 46.0488 140.54C49.1448 140.54 51.0888 139.64 51.8808 139.244L52.6008 133.268ZM65.3976 123.404C62.4456 123.404 59.7816 124.412 58.0176 126.14C56.2896 127.796 55.4256 130.136 55.4256 132.476C55.4256 134.852 56.3616 136.832 57.6216 138.128C59.6736 140.252 62.2656 140.54 64.3176 140.54C66.6576 140.54 69.4296 140.216 71.6976 137.912C73.3896 136.184 74.2896 133.664 74.2896 131.324C74.2896 128.984 73.3536 127.112 72.1296 125.888C70.5456 124.304 67.9896 123.404 65.3976 123.404ZM64.6056 136.148C63.2016 136.148 62.3016 135.608 61.7976 135.068C61.1856 134.42 60.7536 133.448 60.7536 132.332C60.7536 131.108 61.2216 129.776 62.1936 128.912C63.0216 128.156 64.1016 127.796 65.0736 127.796C66.0456 127.796 67.1976 128.156 67.8816 128.804C68.4936 129.38 68.9616 130.352 68.9616 131.576C68.9616 132.8 68.5296 134.132 67.6296 134.996C66.9456 135.644 65.9016 136.148 64.6056 136.148ZM76.5863 140H81.7703L82.7063 132.332C82.8503 131.18 83.0303 129.704 84.0023 128.696C84.6143 128.084 85.3703 127.868 85.9823 127.868C86.5583 127.868 87.2423 128.084 87.6383 128.48C88.1783 129.02 88.2143 129.812 88.2143 130.316C88.2143 130.892 88.1423 131.432 88.0703 132.08L87.0983 140H92.2823L93.2183 132.26C93.4703 130.208 94.0103 129.2 94.5503 128.66C95.0183 128.192 95.7023 127.868 96.5303 127.868C97.1783 127.868 97.7543 128.12 98.0783 128.444C98.6183 128.984 98.7263 129.74 98.7263 130.28C98.7263 130.568 98.6903 130.964 98.5463 132.26L97.6103 140H102.794L103.838 131.36C104.09 129.344 104.45 126.896 102.506 125.024C101.138 123.728 99.3743 123.548 98.2223 123.548C97.1423 123.548 95.9183 123.728 94.8023 124.412C93.6143 125.132 92.8943 126.176 92.6783 126.5C92.2103 125.204 91.3463 124.556 91.0223 124.34C90.3383 123.872 89.3663 123.548 88.1063 123.548C86.7023 123.548 85.7663 123.98 85.3703 124.16C84.7583 124.484 84.0383 124.988 83.4623 125.816L83.7503 123.944H78.5663L76.5863 140ZM112.47 138.02C113.118 138.92 113.874 139.496 114.558 139.856C115.674 140.432 116.898 140.54 118.05 140.54C120.138 140.54 121.902 139.964 123.486 138.38C125.07 136.796 126.186 134.24 126.186 131.18C126.186 128.696 125.358 126.464 124.062 125.168C123.198 124.34 121.686 123.404 119.202 123.404C117.978 123.404 116.934 123.62 115.89 124.16C115.278 124.484 114.522 125.024 113.874 125.816L114.162 123.944H108.978L105.99 148.244H111.174L112.47 138.02ZM117.186 127.868C118.086 127.868 119.094 128.192 119.742 128.804C120.39 129.38 120.858 130.496 120.858 131.504C120.858 132.692 120.282 134.168 119.418 134.96C118.662 135.68 117.582 136.076 116.538 136.076C115.422 136.076 114.45 135.608 113.838 134.96C113.046 134.132 112.866 133.088 112.866 132.332C112.866 131.108 113.226 130.028 114.162 129.092C114.954 128.3 115.926 127.868 117.186 127.868ZM131.826 113.756L128.586 140H133.77L137.01 113.756H131.826ZM143.766 129.812C143.91 129.092 144.27 128.48 144.666 128.048C145.098 127.616 145.854 127.076 147.114 127.076C147.762 127.076 148.662 127.256 149.238 127.724C149.814 128.192 150.21 129.056 150.282 129.812H143.766ZM155.25 132.98C155.466 131.072 155.394 127.58 153.234 125.456C152.01 124.268 149.958 123.404 147.222 123.404C145.206 123.404 142.794 123.8 140.85 125.636C139.518 126.896 138.078 129.236 138.078 132.764C138.078 134.924 138.546 136.832 140.094 138.38C142.002 140.288 144.378 140.54 146.358 140.54C147.834 140.54 150.03 140.396 151.866 139.028C153.018 138.164 154.134 136.652 154.782 135.032L149.562 134.6C149.346 135.104 148.914 135.716 148.446 136.04C147.798 136.472 147.006 136.508 146.394 136.508C145.566 136.508 144.594 136.328 143.91 135.392C143.478 134.78 143.226 133.772 143.262 132.98H155.25ZM167.454 128.12L167.958 123.944H164.79L165.438 118.76H160.254L159.606 123.944H157.734L157.23 128.12H159.102L157.626 140H162.81L164.286 128.12H167.454ZM174.036 129.812C174.18 129.092 174.54 128.48 174.936 128.048C175.368 127.616 176.124 127.076 177.384 127.076C178.032 127.076 178.932 127.256 179.508 127.724C180.084 128.192 180.48 129.056 180.552 129.812H174.036ZM185.52 132.98C185.736 131.072 185.664 127.58 183.504 125.456C182.28 124.268 180.228 123.404 177.492 123.404C175.476 123.404 173.064 123.8 171.12 125.636C169.788 126.896 168.348 129.236 168.348 132.764C168.348 134.924 168.816 136.832 170.364 138.38C172.272 140.288 174.648 140.54 176.628 140.54C178.104 140.54 180.3 140.396 182.136 139.028C183.288 138.164 184.404 136.652 185.052 135.032L179.832 134.6C179.616 135.104 179.184 135.716 178.716 136.04C178.068 136.472 177.276 136.508 176.664 136.508C175.836 136.508 174.864 136.328 174.18 135.392C173.748 134.78 173.496 133.772 173.532 132.98H185.52ZM198.422 123.944L196.442 140H201.626L203.606 123.944H198.422ZM198.674 117.104C198.674 118.796 200.006 120.128 201.698 120.128C203.39 120.128 204.722 118.796 204.722 117.104C204.722 115.412 203.39 114.08 201.698 114.08C200.006 114.08 198.674 115.412 198.674 117.104ZM216.075 128.12L216.579 123.944H213.411L214.059 118.76H208.875L208.227 123.944H206.355L205.851 128.12H207.723L206.247 140H211.431L212.907 128.12H216.075ZM223.773 131.972L225.753 115.988H220.281L218.301 131.972H223.773ZM217.113 137.3C217.113 139.136 218.553 140.576 220.389 140.576C222.225 140.576 223.665 139.136 223.665 137.3C223.665 135.464 222.225 134.024 220.389 134.024C218.553 134.024 217.113 135.464 217.113 137.3Z" fill="black"/>
</svg>
