<svg width="36" height="36" viewBox="0 0 36 36" fill="none" xmlns="http://www.w3.org/2000/svg">
<rect y="25" width="30" height="8" rx="2" fill="#BAD8EE"/>
<rect x="2" y="27" width="20" height="4" rx="1" fill="#66757F"/>
<path d="M17.6164 23.9993C17.6164 23.9993 16.3424 22.1183 15.4994 21.4463C14.8274 20.6033 12.9504 19.3303 12.9504 19.3303C12.5024 18.8843 11.7594 18.8503 11.3214 19.2873C10.8844 19.7253 10.5284 20.6533 10.1484 21.5783C9.67644 22.7243 8.87244 25.7323 8.38044 27.3303C8.29744 27.6023 8.89744 26.8803 8.88344 27.1203C8.87344 27.3073 8.91044 27.5143 8.95744 27.7013L8.81144 27.8603L9.01944 27.9273C9.04444 28.0093 9.06944 28.0813 9.08744 28.1373L9.24644 27.9913C9.43344 28.0383 9.64044 28.0753 9.82644 28.0653C10.0664 28.0513 9.34344 28.6523 9.61644 28.5683C11.2144 28.0753 14.2234 27.2723 15.3684 26.8003C16.2924 26.4193 17.2224 26.0643 17.6594 25.6263C18.0984 25.1913 18.0654 24.4483 17.6164 23.9993Z" fill="#D99E82"/>
<path d="M24.7835 5.82425C23.9075 6.69925 23.9075 8.11725 24.7835 8.99225L27.9505 12.1603C28.8265 13.0343 30.2445 13.0343 31.1185 12.1603L34.2875 8.99225C35.1615 8.11725 35.1615 6.69925 34.2875 5.82425L31.1185 2.65625C30.2445 1.78125 28.8265 1.78125 27.9505 2.65625L24.7835 5.82425V5.82425Z" fill="#EA596E"/>
<path d="M11.3206 19.2883L14.4906 22.4583L17.6556 25.6243L29.5366 13.7453L23.1996 7.4093L11.3206 19.2883V19.2883Z" fill="#FFCC4D"/>
<path d="M10.7695 28.2153C10.7695 28.2153 8.7095 29.3483 8.1535 28.7913C7.5965 28.2333 8.7345 26.1803 8.7345 26.1803C8.7345 26.1803 10.6855 26.2163 10.7695 28.2153Z" fill="#292F33"/>
<path d="M23.1995 7.40824L27.1595 3.44824L33.4955 9.78524L29.5355 13.7452L23.1995 7.40824Z" fill="#CCD6DD"/>
<path d="M25.5745 5.03126L26.3665 4.23926L32.7025 10.5743L31.9105 11.3663L25.5745 5.03126ZM23.9915 6.61526L24.7825 5.82426L31.1185 12.1593L30.3265 12.9513L23.9915 6.61526Z" fill="#99AAB5"/>
</svg>
